<svg width="184" height="247" viewBox="0 0 184 247" fill="none" xmlns="http://www.w3.org/2000/svg">
<mask id="path-1-inside-1_38_39" fill="white">
<path d="M55.1739 19.4446C85.6456 8.70563 119.053 24.7022 129.792 55.1739L147.575 105.632L37.2272 144.521L19.4446 94.0631C8.70564 63.5914 24.7022 30.1835 55.1739 19.4446Z"/>
</mask>
<path d="M55.1739 19.4446C85.6456 8.70563 119.053 24.7022 129.792 55.1739L147.575 105.632L37.2272 144.521L19.4446 94.0631C8.70564 63.5914 24.7022 30.1835 55.1739 19.4446Z" fill="#32D766"/>
<path d="M147.575 105.632L150.566 114.12L159.055 111.129L156.063 102.641L147.575 105.632ZM37.2272 144.521L28.7389 147.513L31.7304 156.001L40.2187 153.01L37.2272 144.521ZM19.4446 94.0631L10.9563 97.0545V97.0545L19.4446 94.0631ZM55.1739 19.4446L58.1654 27.9329C83.9491 18.8461 112.217 32.3816 121.304 58.1654L129.792 55.1739L138.281 52.1824C125.89 17.0228 87.3421 -1.4348 52.1824 10.9563L55.1739 19.4446ZM129.792 55.1739L121.304 58.1654L139.087 108.624L147.575 105.632L156.063 102.641L138.281 52.1824L129.792 55.1739ZM147.575 105.632L144.584 97.1438L34.2358 136.033L37.2272 144.521L40.2187 153.01L150.566 114.12L147.575 105.632ZM37.2272 144.521L45.7155 141.53L27.9329 91.0716L19.4446 94.0631L10.9563 97.0545L28.7389 147.513L37.2272 144.521ZM19.4446 94.0631L27.9329 91.0716C18.8461 65.2878 32.3816 37.0197 58.1654 27.9329L55.1739 19.4446L52.1824 10.9563C17.0228 23.3474 -1.4348 61.8949 10.9563 97.0545L19.4446 94.0631Z" fill="#3D7A34" mask="url(#path-1-inside-1_38_39)"/>
<mask id="path-3-inside-2_38_39" fill="white">
<path d="M128.299 226.936C158.771 216.197 174.767 182.789 164.028 152.318L143.91 95.2335L33.5626 134.123L53.6804 191.207C64.4193 221.679 97.8271 237.675 128.299 226.936Z"/>
</mask>
<path d="M128.299 226.936C158.771 216.197 174.767 182.789 164.028 152.318L143.91 95.2335L33.5626 134.123L53.6804 191.207C64.4193 221.679 97.8271 237.675 128.299 226.936Z" fill="white"/>
<path d="M164.028 152.318L155.54 155.309L164.028 152.318ZM143.91 95.2335L140.919 86.7452L149.407 83.7538L152.399 92.2421L143.91 95.2335ZM33.5626 134.123L25.0743 137.114L22.0828 128.626L30.5711 125.634L33.5626 134.123ZM53.6804 191.207L45.1921 194.198L45.1921 194.198L53.6804 191.207ZM128.299 226.936L125.307 218.448C151.091 209.361 164.627 181.093 155.54 155.309L164.028 152.318L172.516 149.326C184.908 184.486 166.45 223.033 131.29 235.424L128.299 226.936ZM164.028 152.318L155.54 155.309L135.422 98.225L143.91 95.2335L152.399 92.2421L172.516 149.326L164.028 152.318ZM143.91 95.2335L146.902 103.722L36.554 142.611L33.5626 134.123L30.5711 125.634L140.919 86.7452L143.91 95.2335ZM33.5626 134.123L42.0509 131.131L62.1686 188.215L53.6804 191.207L45.1921 194.198L25.0743 137.114L33.5626 134.123ZM53.6804 191.207L62.1686 188.215C71.2555 213.999 99.5236 227.535 125.307 218.448L128.299 226.936L131.29 235.424C96.1307 247.816 57.5832 229.358 45.1921 194.198L53.6804 191.207Z" fill="#3D7A34" mask="url(#path-3-inside-2_38_39)"/>
<path d="M111.042 69.5407C106.066 75.4581 100.278 64.5647 89.5 55.5C78.7218 46.4353 67.0344 42.6319 72.0111 36.7145C76.9878 30.797 89.7597 33.3484 100.538 42.4131C111.316 51.4778 116.019 63.6232 111.042 69.5407Z" fill="#C3FFD6"/>
</svg>
