<svg width="184" height="247" viewBox="0 0 184 247" fill="none" xmlns="http://www.w3.org/2000/svg">
<mask id="path-1-inside-1_3_15" fill="white">
<path d="M55.1739 19.4446C85.6456 8.70564 119.053 24.7022 129.792 55.1739L147.575 105.632L37.2272 144.521L19.4446 94.0631C8.70564 63.5914 24.7022 30.1835 55.1739 19.4446Z"/>
</mask>
<path d="M55.1739 19.4446C85.6456 8.70564 119.053 24.7022 129.792 55.1739L147.575 105.632L37.2272 144.521L19.4446 94.0631C8.70564 63.5914 24.7022 30.1835 55.1739 19.4446Z" fill="#48F27E"/>
<path d="M147.575 105.632L148.905 109.405L152.677 108.075L151.348 104.303L147.575 105.632ZM37.2272 144.521L33.4547 145.851L34.7842 149.623L38.5568 148.294L37.2272 144.521ZM19.4446 94.0631L15.672 95.3926V95.3926L19.4446 94.0631ZM55.1739 19.4446L56.5034 23.2172C84.8916 13.2125 116.015 28.1153 126.02 56.5034L129.792 55.1739L133.565 53.8443C122.092 21.2891 86.3996 4.19878 53.8443 15.672L55.1739 19.4446ZM129.792 55.1739L126.02 56.5034L143.802 106.962L147.575 105.632L151.348 104.303L133.565 53.8443L129.792 55.1739ZM147.575 105.632L146.245 101.859L35.8977 140.749L37.2272 144.521L38.5568 148.294L148.905 109.405L147.575 105.632ZM37.2272 144.521L40.9998 143.192L23.2172 92.7335L19.4446 94.0631L15.672 95.3926L33.4547 145.851L37.2272 144.521ZM19.4446 94.0631L23.2172 92.7335C13.2125 64.3453 28.1153 33.2218 56.5034 23.2172L55.1739 19.4446L53.8443 15.672C21.2891 27.1452 4.19878 62.8374 15.672 95.3926L19.4446 94.0631Z" fill="#69B35D" mask="url(#path-1-inside-1_3_15)"/>
<mask id="path-3-inside-2_3_15" fill="white">
<path d="M128.299 226.936C158.771 216.197 174.767 182.789 164.028 152.318L146.245 101.859L35.8977 140.749L53.6803 191.207C64.4193 221.679 97.8271 237.675 128.299 226.936Z"/>
</mask>
<path d="M128.299 226.936C158.771 216.197 174.767 182.789 164.028 152.318L146.245 101.859L35.8977 140.749L53.6803 191.207C64.4193 221.679 97.8271 237.675 128.299 226.936Z" fill="white"/>
<path d="M146.245 101.859L144.916 98.0869L148.689 96.7574L150.018 100.53L146.245 101.859ZM35.8977 140.749L32.1251 142.078L30.7956 138.306L34.5681 136.976L35.8977 140.749ZM53.6803 191.207L49.9078 192.536V192.536L53.6803 191.207ZM128.299 226.936L126.969 223.164C155.357 213.159 170.26 182.035 160.256 153.647L164.028 152.318L167.801 150.988C179.274 183.543 162.184 219.235 129.628 230.709L128.299 226.936ZM164.028 152.318L160.256 153.647L142.473 103.189L146.245 101.859L150.018 100.53L167.801 150.988L164.028 152.318ZM146.245 101.859L147.575 105.632L37.2272 144.521L35.8977 140.749L34.5681 136.976L144.916 98.0869L146.245 101.859ZM35.8977 140.749L39.6703 139.419L57.4529 189.877L53.6803 191.207L49.9078 192.536L32.1251 142.078L35.8977 140.749ZM53.6803 191.207L57.4529 189.877C67.4576 218.265 98.5811 233.168 126.969 223.164L128.299 226.936L129.628 230.709C97.0731 242.182 61.381 225.092 49.9078 192.536L53.6803 191.207Z" fill="#69B35D" mask="url(#path-3-inside-2_3_15)"/>
</svg>
