<svg width="675" height="155" viewBox="0 0 675 155" fill="none" xmlns="http://www.w3.org/2000/svg">
<mask id="path-1-inside-1_6_149" fill="white">
<path d="M480.361 62.0069C486.709 54.5699 485.826 43.3948 478.389 37.0466L462.905 23.8297L439.916 50.7613L455.4 63.9782C462.837 70.3265 474.013 69.4439 480.361 62.0069Z"/>
</mask>
<path d="M480.361 62.0069C486.709 54.5699 485.826 43.3948 478.389 37.0466L462.905 23.8297L439.916 50.7613L455.4 63.9782C462.837 70.3265 474.013 69.4439 480.361 62.0069Z" fill="#48F27E"/>
<path d="M480.361 62.0069L481.121 62.6561L481.121 62.6561L480.361 62.0069ZM462.905 23.8297L462.145 23.1805L462.794 22.4199L463.555 23.0691L462.905 23.8297ZM439.916 50.7613L439.267 51.5219L438.507 50.8726L439.156 50.1121L439.916 50.7613ZM480.361 62.0069L479.6 61.3577C485.59 54.3408 484.757 43.7969 477.74 37.8072L478.389 37.0466L479.038 36.286C486.895 42.9928 487.828 54.7991 481.121 62.6561L480.361 62.0069ZM478.389 37.0466L477.74 37.8072L462.256 24.5903L462.905 23.8297L463.555 23.0691L479.038 36.286L478.389 37.0466ZM462.905 23.8297L463.666 24.479L440.677 51.4105L439.916 50.7613L439.156 50.1121L462.145 23.1805L462.905 23.8297ZM439.916 50.7613L440.566 50.0007L456.049 63.2176L455.4 63.9782L454.751 64.7388L439.267 51.5219L439.916 50.7613ZM455.4 63.9782L456.049 63.2176C463.066 69.2073 473.611 68.3746 479.6 61.3577L480.361 62.0069L481.121 62.6561C474.415 70.5132 462.608 71.4456 454.751 64.7388L455.4 63.9782Z" fill="#40D03E" mask="url(#path-1-inside-1_6_149)"/>
<mask id="path-3-inside-2_6_149" fill="white">
<path d="M423.495 13.4654C429.843 6.0287 441.018 5.14665 448.455 11.4949L463.939 24.7117L440.95 51.6433L425.466 38.4264C418.029 32.0781 417.147 20.9024 423.495 13.4654Z"/>
</mask>
<path d="M423.495 13.4654C429.843 6.0287 441.018 5.14665 448.455 11.4949L463.939 24.7117L440.95 51.6433L425.466 38.4264C418.029 32.0781 417.147 20.9024 423.495 13.4654Z" fill="white"/>
<path d="M423.495 13.4654L422.734 12.8161L422.734 12.8162L423.495 13.4654ZM463.939 24.7117L464.699 25.361L465.349 24.6004L464.588 23.9512L463.939 24.7117ZM440.95 51.6433L440.3 52.4039L441.061 53.0532L441.71 52.2926L440.95 51.6433ZM425.466 38.4264L426.115 37.6659L425.466 38.4264ZM423.495 13.4654L424.255 14.1147C430.245 7.09803 440.789 6.26576 447.806 12.2554L448.455 11.4949L449.105 10.7343C441.248 4.02753 429.441 4.95937 422.734 12.8161L423.495 13.4654ZM448.455 11.4949L447.806 12.2554L463.29 25.4723L463.939 24.7117L464.588 23.9512L449.105 10.7343L448.455 11.4949ZM463.939 24.7117L463.178 24.0625L440.189 50.9941L440.95 51.6433L441.71 52.2926L464.699 25.361L463.939 24.7117ZM440.95 51.6433L441.599 50.8828L426.115 37.6659L425.466 38.4264L424.817 39.187L440.3 52.4039L440.95 51.6433ZM425.466 38.4264L426.115 37.6659C419.098 31.6761 418.266 21.1316 424.255 14.1146L423.495 13.4654L422.734 12.8162C416.027 20.6732 416.96 32.4802 424.817 39.187L425.466 38.4264Z" fill="#40D03E" mask="url(#path-3-inside-2_6_149)"/>
<mask id="path-5-inside-3_6_149" fill="white">
<path d="M312.449 67.1982C317.205 66.4939 320.489 62.0673 319.785 57.3112L318.598 49.2893L301.374 51.8389L302.562 59.8609C303.266 64.6171 307.693 67.9023 312.449 67.1982Z"/>
</mask>
<path d="M312.449 67.1982C317.205 66.4939 320.489 62.0673 319.785 57.3112L318.598 49.2893L301.374 51.8389L302.562 59.8609C303.266 64.6171 307.693 67.9023 312.449 67.1982Z" fill="#48F27E"/>
<path d="M312.449 67.1982L312.595 68.1874L312.595 68.1874L312.449 67.1982ZM318.598 49.2893L318.451 48.3L319.441 48.1536L319.587 49.1428L318.598 49.2893ZM301.374 51.8389L300.385 51.9853L300.239 50.9961L301.228 50.8497L301.374 51.8389ZM312.449 67.1982L312.303 66.209C316.512 65.5856 319.419 61.6675 318.796 57.4577L319.785 57.3112L320.775 57.1648C321.56 62.4671 317.898 67.4022 312.595 68.1874L312.449 67.1982ZM319.785 57.3112L318.796 57.4577L317.609 49.4357L318.598 49.2893L319.587 49.1428L320.775 57.1648L319.785 57.3112ZM318.598 49.2893L318.744 50.2785L301.521 52.8281L301.374 51.8389L301.228 50.8497L318.451 48.3L318.598 49.2893ZM301.374 51.8389L302.364 51.6925L303.551 59.7144L302.562 59.8609L301.573 60.0073L300.385 51.9853L301.374 51.8389ZM302.562 59.8609L303.551 59.7144C304.174 63.9243 308.093 66.8322 312.303 66.209L312.449 67.1982L312.595 68.1874C307.293 68.9723 302.358 65.3098 301.573 60.0073L302.562 59.8609Z" fill="#40D03E" mask="url(#path-5-inside-3_6_149)"/>
<mask id="path-7-inside-4_6_149" fill="white">
<path d="M307.612 34.5244C312.368 33.8205 316.794 37.1057 317.498 41.8618L318.686 49.8838L301.462 52.4334L300.275 44.4115C299.571 39.6553 302.856 35.2284 307.612 34.5244Z"/>
</mask>
<path d="M307.612 34.5244C312.368 33.8205 316.794 37.1057 317.498 41.8618L318.686 49.8838L301.462 52.4334L300.275 44.4115C299.571 39.6553 302.856 35.2284 307.612 34.5244Z" fill="white"/>
<path d="M307.612 34.5244L307.466 33.5351L307.466 33.5351L307.612 34.5244ZM318.686 49.8838L318.832 50.873L319.822 50.7265L319.675 49.7373L318.686 49.8838ZM301.462 52.4334L300.473 52.5799L300.62 53.5691L301.609 53.4226L301.462 52.4334ZM307.612 34.5244L307.759 35.5136C311.968 34.8906 315.886 37.7984 316.509 42.0082L317.498 41.8618L318.488 41.7154C317.703 36.413 312.768 32.7504 307.466 33.5351L307.612 34.5244ZM317.498 41.8618L316.509 42.0082L317.697 50.0302L318.686 49.8838L319.675 49.7373L318.488 41.7154L317.498 41.8618ZM318.686 49.8838L318.539 48.8945L301.316 51.4442L301.462 52.4334L301.609 53.4226L318.832 50.873L318.686 49.8838ZM301.462 52.4334L302.452 52.287L301.264 44.265L300.275 44.4115L299.286 44.5579L300.473 52.5799L301.462 52.4334ZM300.275 44.4115L301.264 44.265C300.641 40.0551 303.549 36.1368 307.759 35.5136L307.612 34.5244L307.466 33.5351C302.163 34.3201 298.501 39.2554 299.286 44.5579L300.275 44.4115Z" fill="#40D03E" mask="url(#path-7-inside-4_6_149)"/>
<mask id="path-9-inside-5_6_149" fill="white">
<path d="M175.54 100.691C179.705 103.885 185.669 103.097 188.863 98.9327L194.64 91.3977L179.559 79.8341L173.782 87.3691C170.589 91.5336 171.376 97.4981 175.54 100.691Z"/>
</mask>
<path d="M175.54 100.691C179.705 103.885 185.669 103.097 188.863 98.9327L194.64 91.3977L179.559 79.8341L173.782 87.3691C170.589 91.5336 171.376 97.4981 175.54 100.691Z" fill="#48F27E"/>
<path d="M175.54 100.691L174.932 101.485V101.485L175.54 100.691ZM194.64 91.3977L195.249 90.6042L196.042 91.2127L195.434 92.0062L194.64 91.3977ZM179.559 79.8341L178.766 79.2256L179.374 78.4321L180.168 79.0406L179.559 79.8341ZM173.782 87.3691L172.988 86.7606L172.988 86.7606L173.782 87.3691ZM175.54 100.691L176.149 99.8978C179.875 102.755 185.212 102.05 188.069 98.3242L188.863 98.9327L189.656 99.5412C186.127 104.144 179.535 105.014 174.932 101.485L175.54 100.691ZM188.863 98.9327L188.069 98.3242L193.847 90.7893L194.64 91.3977L195.434 92.0062L189.656 99.5412L188.863 98.9327ZM194.64 91.3977L194.032 92.1913L178.951 80.6277L179.559 79.8341L180.168 79.0406L195.249 90.6042L194.64 91.3977ZM179.559 79.8341L180.353 80.4426L174.575 87.9776L173.782 87.3691L172.988 86.7606L178.766 79.2256L179.559 79.8341ZM173.782 87.3691L174.575 87.9776C171.718 91.7038 172.423 97.0406 176.149 99.8978L175.54 100.691L174.932 101.485C170.329 97.9556 169.459 91.3634 172.988 86.7606L173.782 87.3691Z" fill="#40D03E" mask="url(#path-9-inside-5_6_149)"/>
<mask id="path-11-inside-6_6_149" fill="white">
<path d="M198.246 71.0794C202.411 74.2726 203.198 80.2371 200.005 84.4016L194.227 91.9366L179.146 80.373L184.924 72.838C188.117 68.6735 194.082 67.8862 198.246 71.0794Z"/>
</mask>
<path d="M198.246 71.0794C202.411 74.2726 203.198 80.2371 200.005 84.4016L194.227 91.9366L179.146 80.373L184.924 72.838C188.117 68.6735 194.082 67.8862 198.246 71.0794Z" fill="white"/>
<path d="M198.246 71.0794L198.855 70.2858V70.2858L198.246 71.0794ZM194.227 91.9366L193.619 92.7301L194.412 93.3386L195.021 92.5451L194.227 91.9366ZM179.146 80.373L178.353 79.7645L177.744 80.558L178.538 81.1665L179.146 80.373ZM184.924 72.838L184.13 72.2295L184.13 72.2295L184.924 72.838ZM198.246 71.0794L197.638 71.8729C201.364 74.7301 202.068 80.0669 199.211 83.7931L200.005 84.4016L200.798 85.0101C204.328 80.4073 203.457 73.8151 198.855 70.2858L198.246 71.0794ZM200.005 84.4016L199.211 83.7931L193.434 91.3281L194.227 91.9366L195.021 92.5451L200.798 85.0101L200.005 84.4016ZM194.227 91.9366L194.836 91.143L179.755 79.5794L179.146 80.373L178.538 81.1665L193.619 92.7301L194.227 91.9366ZM179.146 80.373L179.94 80.9814L185.717 73.4465L184.924 72.838L184.13 72.2295L178.353 79.7645L179.146 80.373ZM184.924 72.838L185.717 73.4465C188.575 69.7203 193.911 69.0158 197.638 71.8729L198.246 71.0794L198.855 70.2858C194.252 66.7565 187.66 67.6268 184.13 72.2295L184.924 72.838Z" fill="#40D03E" mask="url(#path-11-inside-6_6_149)"/>
<path d="M0 106.473C73.0783 14.1071 157.783 67.9873 191 106.473H0Z" fill="#48F27E"/>
<path d="M243.5 109.473C317.726 18.9182 403.761 71.7419 437.5 109.473H243.5Z" fill="#48F27E"/>
<path d="M482.5 106.473C555.961 15.9182 641.109 68.7419 674.5 106.473H482.5Z" fill="#48F27E"/>
<path d="M675 106.473H482.249C476.877 113.751 468.24 118.473 458.5 118.473C448.76 118.473 440.123 113.751 434.751 106.473H245.784C240.338 116.037 230.159 122.473 218.5 122.473C206.841 122.473 196.662 116.037 191.216 106.473H0V154.473H675V106.473Z" fill="#48F27E"/>
<ellipse cx="7.59261" cy="10.137" rx="7.59261" ry="10.137" transform="matrix(0.823974 0.566627 0.566627 -0.823974 486 75.8687)" fill="#48F27E"/>
<ellipse cx="2.61718" cy="3.25348" rx="2.61718" ry="3.25348" transform="matrix(0.823974 0.566627 0.566627 -0.823974 486 26.5071)" fill="#48F27E"/>
<ellipse cx="2.45739" cy="4.12099" rx="2.45739" ry="4.12099" transform="matrix(0.778343 -0.627839 -0.627839 -0.778343 417.175 76.4731)" fill="#48F27E"/>
<ellipse cx="11" cy="28" rx="11" ry="28" transform="matrix(0.858252 -0.513228 -0.513228 -0.858252 443.741 131.473)" fill="#48F27E"/>
<ellipse cx="11" cy="28" rx="11" ry="28" transform="matrix(0.778976 0.627054 0.627054 -0.778976 446 127.678)" fill="#48F27E"/>
</svg>
