<svg width="675" height="155" viewBox="0 0 675 155" fill="none" xmlns="http://www.w3.org/2000/svg">
<mask id="path-1-inside-1_6_148" fill="white">
<path d="M480.361 92.4662C486.709 99.9031 485.826 111.078 478.389 117.426L462.905 130.643L439.916 103.712L455.4 90.4949C462.837 84.1466 474.013 85.0292 480.361 92.4662Z"/>
</mask>
<path d="M480.361 92.4662C486.709 99.9031 485.826 111.078 478.389 117.426L462.905 130.643L439.916 103.712L455.4 90.4949C462.837 84.1466 474.013 85.0292 480.361 92.4662Z" fill="#48F27E"/>
<path d="M480.361 92.4662L481.121 91.8169L481.121 91.8169L480.361 92.4662ZM462.905 130.643L462.145 131.293L462.794 132.053L463.555 131.404L462.905 130.643ZM439.916 103.712L439.267 102.951L438.507 103.6L439.156 104.361L439.916 103.712ZM480.361 92.4662L479.6 93.1154C485.59 100.132 484.757 110.676 477.74 116.666L478.389 117.426L479.038 118.187C486.895 111.48 487.828 99.674 481.121 91.8169L480.361 92.4662ZM478.389 117.426L477.74 116.666L462.256 129.883L462.905 130.643L463.555 131.404L479.038 118.187L478.389 117.426ZM462.905 130.643L463.666 129.994L440.677 103.063L439.916 103.712L439.156 104.361L462.145 131.293L462.905 130.643ZM439.916 103.712L440.566 104.472L456.049 91.2555L455.4 90.4949L454.751 89.7343L439.267 102.951L439.916 103.712ZM455.4 90.4949L456.049 91.2555C463.066 85.2657 473.611 86.0985 479.6 93.1154L480.361 92.4662L481.121 91.8169C474.415 83.9599 462.608 83.0274 454.751 89.7343L455.4 90.4949Z" fill="#40D03E" mask="url(#path-1-inside-1_6_148)"/>
<mask id="path-3-inside-2_6_148" fill="white">
<path d="M423.495 141.008C429.843 148.444 441.018 149.326 448.455 142.978L463.939 129.761L440.95 102.83L425.466 116.047C418.029 122.395 417.147 133.571 423.495 141.008Z"/>
</mask>
<path d="M423.495 141.008C429.843 148.444 441.018 149.326 448.455 142.978L463.939 129.761L440.95 102.83L425.466 116.047C418.029 122.395 417.147 133.571 423.495 141.008Z" fill="white"/>
<path d="M423.495 141.008L422.734 141.657L422.734 141.657L423.495 141.008ZM448.455 142.978L447.806 142.218L448.455 142.978ZM463.939 129.761L464.699 129.112L465.349 129.873L464.588 130.522L463.939 129.761ZM440.95 102.83L440.3 102.069L441.061 101.42L441.71 102.18L440.95 102.83ZM423.495 141.008L424.255 140.358C430.245 147.375 440.789 148.207 447.806 142.218L448.455 142.978L449.105 143.739C441.248 150.446 429.441 149.514 422.734 141.657L423.495 141.008ZM448.455 142.978L447.806 142.218L463.29 129.001L463.939 129.761L464.588 130.522L449.105 143.739L448.455 142.978ZM463.939 129.761L463.178 130.411L440.189 103.479L440.95 102.83L441.71 102.18L464.699 129.112L463.939 129.761ZM440.95 102.83L441.599 103.59L426.115 116.807L425.466 116.047L424.817 115.286L440.3 102.069L440.95 102.83ZM425.466 116.047L426.115 116.807C419.098 122.797 418.266 133.341 424.255 140.358L423.495 141.008L422.734 141.657C416.027 133.8 416.96 121.993 424.817 115.286L425.466 116.047Z" fill="#40D03E" mask="url(#path-3-inside-2_6_148)"/>
<mask id="path-5-inside-3_6_148" fill="white">
<path d="M312.449 87.2749C317.205 87.9791 320.489 92.4058 319.785 97.1619L318.598 105.184L301.374 102.634L302.562 94.6122C303.266 89.856 307.693 86.5708 312.449 87.2749Z"/>
</mask>
<path d="M312.449 87.2749C317.205 87.9791 320.489 92.4058 319.785 97.1619L318.598 105.184L301.374 102.634L302.562 94.6122C303.266 89.856 307.693 86.5708 312.449 87.2749Z" fill="#48F27E"/>
<path d="M312.449 87.2749L312.595 86.2857L312.595 86.2857L312.449 87.2749ZM319.785 97.1619L320.775 97.3083L319.785 97.1619ZM318.598 105.184L318.451 106.173L319.441 106.319L319.587 105.33L318.598 105.184ZM301.374 102.634L300.385 102.488L300.239 103.477L301.228 103.623L301.374 102.634ZM312.449 87.2749L312.303 88.2641C316.512 88.8874 319.419 92.8055 318.796 97.0154L319.785 97.1619L320.775 97.3083C321.56 92.006 317.898 87.0708 312.595 86.2857L312.449 87.2749ZM319.785 97.1619L318.796 97.0154L317.609 105.037L318.598 105.184L319.587 105.33L320.775 97.3083L319.785 97.1619ZM318.598 105.184L318.744 104.195L301.521 101.645L301.374 102.634L301.228 103.623L318.451 106.173L318.598 105.184ZM301.374 102.634L302.364 102.781L303.551 94.7586L302.562 94.6122L301.573 94.4658L300.385 102.488L301.374 102.634ZM302.562 94.6122L303.551 94.7586C304.174 90.5488 308.093 87.6409 312.303 88.2641L312.449 87.2749L312.595 86.2857C307.293 85.5007 302.358 89.1632 301.573 94.4658L302.562 94.6122Z" fill="#40D03E" mask="url(#path-5-inside-3_6_148)"/>
<mask id="path-7-inside-4_6_148" fill="white">
<path d="M307.612 119.949C312.368 120.653 316.794 117.367 317.498 112.611L318.686 104.589L301.462 102.04L300.275 110.062C299.571 114.818 302.856 119.245 307.612 119.949Z"/>
</mask>
<path d="M307.612 119.949C312.368 120.653 316.794 117.367 317.498 112.611L318.686 104.589L301.462 102.04L300.275 110.062C299.571 114.818 302.856 119.245 307.612 119.949Z" fill="white"/>
<path d="M307.612 119.949L307.466 120.938L307.466 120.938L307.612 119.949ZM318.686 104.589L318.832 103.6L319.822 103.747L319.675 104.736L318.686 104.589ZM301.462 102.04L300.473 101.893L300.62 100.904L301.609 101.05L301.462 102.04ZM307.612 119.949L307.759 118.959C311.968 119.583 315.886 116.675 316.509 112.465L317.498 112.611L318.488 112.758C317.703 118.06 312.768 121.723 307.466 120.938L307.612 119.949ZM317.498 112.611L316.509 112.465L317.697 104.443L318.686 104.589L319.675 104.736L318.488 112.758L317.498 112.611ZM318.686 104.589L318.539 105.579L301.316 103.029L301.462 102.04L301.609 101.05L318.832 103.6L318.686 104.589ZM301.462 102.04L302.452 102.186L301.264 110.208L300.275 110.062L299.286 109.915L300.473 101.893L301.462 102.04ZM300.275 110.062L301.264 110.208C300.641 114.418 303.549 118.336 307.759 118.96L307.612 119.949L307.466 120.938C302.163 120.153 298.501 115.218 299.286 109.915L300.275 110.062Z" fill="#40D03E" mask="url(#path-7-inside-4_6_148)"/>
<mask id="path-9-inside-5_6_148" fill="white">
<path d="M175.54 53.7817C179.705 50.5885 185.669 51.3759 188.863 55.5403L194.64 63.0753L179.559 74.6389L173.782 67.1039C170.589 62.9395 171.376 56.9749 175.54 53.7817Z"/>
</mask>
<path d="M175.54 53.7817C179.705 50.5885 185.669 51.3759 188.863 55.5403L194.64 63.0753L179.559 74.6389L173.782 67.1039C170.589 62.9395 171.376 56.9749 175.54 53.7817Z" fill="#48F27E"/>
<path d="M175.54 53.7817L174.932 52.9882V52.9882L175.54 53.7817ZM194.64 63.0753L195.249 63.8689L196.042 63.2604L195.434 62.4668L194.64 63.0753ZM179.559 74.6389L178.766 75.2474L179.374 76.041L180.168 75.4325L179.559 74.6389ZM173.782 67.1039L172.988 67.7124L172.988 67.7124L173.782 67.1039ZM175.54 53.7817L176.149 54.5753C179.875 51.7182 185.212 52.4226 188.069 56.1488L188.863 55.5403L189.656 54.9318C186.127 50.3291 179.535 49.4589 174.932 52.9882L175.54 53.7817ZM188.863 55.5403L188.069 56.1488L193.847 63.6838L194.64 63.0753L195.434 62.4668L189.656 54.9318L188.863 55.5403ZM194.64 63.0753L194.032 62.2818L178.951 73.8454L179.559 74.6389L180.168 75.4325L195.249 63.8689L194.64 63.0753ZM179.559 74.6389L180.353 74.0304L174.575 66.4955L173.782 67.1039L172.988 67.7124L178.766 75.2474L179.559 74.6389ZM173.782 67.1039L174.575 66.4955C171.718 62.7693 172.423 57.4324 176.149 54.5753L175.54 53.7817L174.932 52.9882C170.329 56.5174 169.459 63.1097 172.988 67.7124L173.782 67.1039Z" fill="#40D03E" mask="url(#path-9-inside-5_6_148)"/>
<mask id="path-11-inside-6_6_148" fill="white">
<path d="M198.246 83.3937C202.411 80.2005 203.198 74.2359 200.005 70.0715L194.227 62.5365L179.146 74.1001L184.924 81.6351C188.117 85.7995 194.082 86.5869 198.246 83.3937Z"/>
</mask>
<path d="M198.246 83.3937C202.411 80.2005 203.198 74.2359 200.005 70.0715L194.227 62.5365L179.146 74.1001L184.924 81.6351C188.117 85.7995 194.082 86.5869 198.246 83.3937Z" fill="white"/>
<path d="M198.246 83.3937L198.855 84.1873V84.1873L198.246 83.3937ZM194.227 62.5365L193.619 61.7429L194.412 61.1344L195.021 61.928L194.227 62.5365ZM179.146 74.1001L178.353 74.7086L177.744 73.915L178.538 73.3065L179.146 74.1001ZM184.924 81.6351L184.13 82.2436L184.13 82.2436L184.924 81.6351ZM198.246 83.3937L197.638 82.6001C201.364 79.743 202.068 74.4061 199.211 70.68L200.005 70.0715L200.798 69.463C204.328 74.0657 203.457 80.658 198.855 84.1873L198.246 83.3937ZM200.005 70.0715L199.211 70.68L193.434 63.145L194.227 62.5365L195.021 61.928L200.798 69.463L200.005 70.0715ZM194.227 62.5365L194.836 63.3301L179.755 74.8937L179.146 74.1001L178.538 73.3065L193.619 61.7429L194.227 62.5365ZM179.146 74.1001L179.94 73.4916L185.717 81.0266L184.924 81.6351L184.13 82.2436L178.353 74.7086L179.146 74.1001ZM184.924 81.6351L185.717 81.0266C188.575 84.7528 193.911 85.4573 197.638 82.6001L198.246 83.3937L198.855 84.1873C194.252 87.7165 187.66 86.8463 184.13 82.2436L184.924 81.6351Z" fill="#40D03E" mask="url(#path-11-inside-6_6_148)"/>
<path d="M0 48C73.0783 140.366 157.783 86.4858 191 48H0Z" fill="#48F27E"/>
<path d="M243.5 45C317.726 135.555 403.761 82.7312 437.5 45H243.5Z" fill="#48F27E"/>
<path d="M482.5 48C555.961 138.555 641.109 85.7312 674.5 48H482.5Z" fill="#48F27E"/>
<path d="M675 48H482.249C476.877 40.7217 468.24 36 458.5 36C448.76 36 440.123 40.7217 434.751 48H245.784C240.338 38.4356 230.159 32 218.5 32C206.841 32 196.662 38.4356 191.216 48H0V0H675V48Z" fill="#48F27E"/>
<ellipse cx="498" cy="82.6548" rx="7.59261" ry="10.137" transform="rotate(-34.5154 498 82.6548)" fill="#48F27E"/>
<ellipse cx="490" cy="129.164" rx="2.61718" ry="3.25348" transform="rotate(-34.5154 490 129.164)" fill="#48F27E"/>
<ellipse cx="416.5" cy="82.7504" rx="2.45739" ry="4.12099" transform="rotate(38.8909 416.5 82.7504)" fill="#48F27E"/>
<ellipse cx="438.811" cy="52.6766" rx="11" ry="28" transform="rotate(30.8791 438.811 52.6766)" fill="#48F27E"/>
<ellipse cx="472.126" cy="41.7089" rx="11" ry="28" transform="rotate(-38.8331 472.126 41.7089)" fill="#48F27E"/>
</svg>
